<svg width="24" height="24" viewBox="0 0 24 24" fill="none" xmlns="http://www.w3.org/2000/svg">
<path class="color" d="M12 21.9375C6.525 21.9375 2.0625 17.475 2.0625 12C2.0625 6.525 6.525 2.0625 12 2.0625C17.475 2.0625 21.9375 6.525 21.9375 12C21.9375 17.475 17.475 21.9375 12 21.9375ZM12 3.1875C7.14375 3.1875 3.1875 7.14375 3.1875 12C3.1875 16.8562 7.14375 20.8125 12 20.8125C16.8562 20.8125 20.8125 16.8562 20.8125 12C20.8125 7.14375 16.8562 3.1875 12 3.1875Z" fill="#FCFCFC"/>
<circle class="color" cx="12" cy="12" r="8" fill="#FCFCFC"/>
<path class="color-2" d="M14.625 10.5938C14.625 9.50625 13.7438 8.625 12.6562 8.625H12.375V8.25C12.375 7.93125 12.1312 7.6875 11.8125 7.6875C11.4938 7.6875 11.25 7.93125 11.25 8.25V8.625H9.9375C9.61875 8.625 9.375 8.86875 9.375 9.1875C9.375 9.43125 9.525 9.6375 9.75 9.7125V14.2688C9.525 14.3438 9.375 14.55 9.375 14.7938C9.375 15.1125 9.61875 15.3563 9.9375 15.3563H11.25V15.7313C11.25 16.05 11.4938 16.2938 11.8125 16.2938C12.1312 16.2938 12.375 16.05 12.375 15.7313V15.3563H12.6562C13.7438 15.375 14.625 14.4938 14.625 13.4063C14.625 12.8625 14.4 12.3563 14.025 12C14.4 11.6438 14.625 11.1375 14.625 10.5938ZM12.6562 14.25H10.875V12.5625H12.6562C13.125 12.5625 13.5 12.9375 13.5 13.4063C13.5 13.875 13.125 14.25 12.6562 14.25ZM12.6562 11.4375H10.875V9.75H12.6562C13.125 9.75 13.5 10.125 13.5 10.5938C13.5 11.0625 13.125 11.4375 12.6562 11.4375Z" fill="#2642BA"/>
</svg>
