<svg width="24" height="24" viewBox="0 0 24 24" fill="none" xmlns="http://www.w3.org/2000/svg">
<path class="color" d="M12 21.9375C6.525 21.9375 2.0625 17.475 2.0625 12C2.0625 6.525 6.525 2.0625 12 2.0625C17.475 2.0625 21.9375 6.525 21.9375 12C21.9375 17.475 17.475 21.9375 12 21.9375ZM12 3.1875C7.14375 3.1875 3.1875 7.14375 3.1875 12C3.1875 16.8562 7.14375 20.8125 12 20.8125C16.8562 20.8125 20.8125 16.8562 20.8125 12C20.8125 7.14375 16.8562 3.1875 12 3.1875Z" fill="#FEFEFE"/>
<circle class="color" cx="12" cy="12" r="8" fill="#FEFEFE"/>
<path class="color-2" d="M11.7202 16V15.4013C11.0674 15.3583 10.5515 15.1664 10.1727 14.8256C9.79378 14.4878 9.60289 14.0472 9.59998 13.5037H10.6666C10.687 13.7678 10.7905 13.9858 10.977 14.1577C11.1665 14.3328 11.4142 14.4387 11.7202 14.4755V12.4629L11.3005 12.3523C10.2601 12.0852 9.73987 11.4834 9.73987 10.5469C9.73987 10.0035 9.91473 9.56285 10.2645 9.2251C10.6142 8.89042 11.0994 8.69392 11.7202 8.63558V8H12.3235V8.63558C12.9122 8.69085 13.3843 8.89042 13.7399 9.23431C14.0925 9.57513 14.2747 10.005 14.2863 10.5239H13.2415C13.2357 10.2783 13.1482 10.0679 12.9792 9.89292C12.8073 9.7179 12.5887 9.61197 12.3235 9.57513V11.4865L12.7563 11.5832C13.8521 11.8595 14.4 12.4721 14.4 13.4208C14.4 13.995 14.2193 14.4525 13.8579 14.7933C13.4965 15.1372 12.985 15.3368 12.3235 15.3921V16H11.7202ZM13.3377 13.5406C13.3377 13.0462 12.9996 12.7269 12.3235 12.5826V14.4847C12.6441 14.4633 12.8932 14.3696 13.071 14.2038C13.2488 14.038 13.3377 13.8169 13.3377 13.5406ZM10.8153 10.4548C10.8153 10.9215 11.1169 11.2209 11.7202 11.3529V9.57052C11.4579 9.58588 11.2422 9.67645 11.0732 9.84226C10.9013 10.0081 10.8153 10.2122 10.8153 10.4548Z" fill="#2642BA"/>
</svg>
