<svg width="136" height="24" viewBox="0 0 136 24" fill="none" xmlns="http://www.w3.org/2000/svg">
<path d="M40.8613 8.6123H43.3398V10.3701H43.3926C43.5977 9.78418 43.9492 9.32129 44.4473 8.98145C44.9395 8.6416 45.5078 8.47168 46.1523 8.47168C46.8496 8.47168 47.4326 8.6416 47.9014 8.98145C48.3701 9.32715 48.6865 9.81641 48.8506 10.4492H48.9033C49.126 9.83984 49.5068 9.35938 50.0459 9.00781C50.585 8.65039 51.2061 8.47168 51.9092 8.47168C52.8584 8.47168 53.626 8.76758 54.2119 9.35938C54.792 9.95703 55.082 10.7422 55.082 11.7148V18.2891H52.5156V12.3564C52.5156 11.1846 51.9766 10.5986 50.8984 10.5986C50.3945 10.5986 49.9873 10.7686 49.6768 11.1084C49.3662 11.4424 49.2109 11.8848 49.2109 12.4355V18.2891H46.7324V12.2598C46.7324 11.7441 46.5918 11.3369 46.3105 11.0381C46.0293 10.7451 45.6396 10.5986 45.1416 10.5986C44.6377 10.5986 44.2246 10.7744 43.9023 11.126C43.5859 11.4717 43.4277 11.9199 43.4277 12.4707V18.2891H40.8613V8.6123Z" fill="#3A3A3A"/>
<path d="M61.1025 10.3613C60.5166 10.3613 60.0273 10.5547 59.6348 10.9414C59.248 11.3281 59.0312 11.832 58.9844 12.4531H63.1592C63.1357 11.8203 62.9365 11.3135 62.5615 10.9326C62.1865 10.5518 61.7002 10.3613 61.1025 10.3613ZM65.5586 15.3359C65.418 16.2734 64.9463 17.0264 64.1436 17.5947C63.3408 18.1689 62.3506 18.4561 61.1729 18.4561C59.7021 18.4561 58.542 18.0137 57.6924 17.1289C56.8486 16.2441 56.4268 15.0312 56.4268 13.4902C56.4268 11.9492 56.8457 10.7246 57.6836 9.81641C58.5273 8.90234 59.6582 8.44531 61.0762 8.44531C62.4707 8.44531 63.5781 8.87891 64.3984 9.74609C65.2246 10.6133 65.6377 11.7822 65.6377 13.2529V14.0439H58.958V14.2021C58.958 14.8994 59.166 15.4648 59.582 15.8984C59.998 16.3262 60.543 16.54 61.2168 16.54C61.7031 16.54 62.1221 16.4316 62.4736 16.2148C62.8311 16.0039 63.0713 15.7109 63.1943 15.3359H65.5586Z" fill="#3A3A3A"/>
<path d="M70.2695 6.45898V8.6123H72.0625V10.5547H70.2695V15.2568C70.2695 15.9951 70.6533 16.3643 71.4209 16.3643C71.6729 16.3643 71.8867 16.3496 72.0625 16.3203V18.2188C71.7109 18.2891 71.2979 18.3242 70.8232 18.3242C69.7041 18.3242 68.9043 18.1191 68.4238 17.709C67.9434 17.2988 67.7031 16.6221 67.7031 15.6787V10.5547H66.3936V8.6123H67.7031V6.45898H70.2695Z" fill="#3A3A3A"/>
<path d="M77.1865 16.5312C77.79 16.5312 78.2939 16.3643 78.6982 16.0303C79.1143 15.6904 79.3223 15.2598 79.3223 14.7383V14.0264L77.292 14.167C76.1963 14.2373 75.6484 14.6387 75.6484 15.3711C75.6484 15.7285 75.7891 16.0098 76.0703 16.2148C76.3457 16.4258 76.7178 16.5312 77.1865 16.5312ZM76.3516 18.4033C75.4082 18.4033 74.6318 18.1367 74.0225 17.6035C73.4014 17.0586 73.0908 16.3584 73.0908 15.5029C73.0908 14.6299 73.4189 13.9443 74.0752 13.4463C74.7197 12.96 75.6631 12.6787 76.9053 12.6025L79.3223 12.4531V11.8115C79.3223 11.3486 79.1729 10.9912 78.874 10.7393C78.5752 10.4932 78.1592 10.3701 77.626 10.3701C77.1689 10.3701 76.7852 10.4814 76.4746 10.7041C76.1699 10.9209 75.9854 11.208 75.9209 11.5654H73.5742C73.6094 10.6396 74.0078 9.88965 74.7695 9.31543C75.5371 8.73535 76.5244 8.44531 77.7314 8.44531C78.9736 8.44531 79.9697 8.73828 80.7197 9.32422C81.4697 9.91016 81.8447 10.6865 81.8447 11.6533V18.2891H79.3662V16.7949H79.3135C79.0557 17.293 78.6514 17.6885 78.1006 17.9814C77.5674 18.2627 76.9844 18.4033 76.3516 18.4033Z" fill="#3A3A3A"/>
<path d="M89.2627 18.4033C87.8037 18.4033 86.79 17.8145 86.2217 16.6367H86.1689V18.2891H83.6465V5H86.2129V10.2646H86.2656C86.834 9.08691 87.8301 8.49805 89.2539 8.49805C90.4785 8.49805 91.4424 8.9375 92.1455 9.81641C92.8486 10.7012 93.2002 11.9111 93.2002 13.4463C93.2002 14.9814 92.8486 16.1914 92.1455 17.0762C91.4424 17.9609 90.4814 18.4033 89.2627 18.4033ZM88.3926 10.5723C87.7363 10.5723 87.2061 10.8359 86.8018 11.3633C86.4033 11.8906 86.2012 12.5879 86.1953 13.4551C86.2012 14.3223 86.4033 15.0166 86.8018 15.5381C87.2061 16.0654 87.7363 16.3291 88.3926 16.3291C89.0547 16.3291 89.585 16.0684 89.9834 15.5469C90.376 15.0254 90.5723 14.3252 90.5723 13.4463C90.5723 12.5732 90.373 11.876 89.9746 11.3545C89.582 10.833 89.0547 10.5723 88.3926 10.5723Z" fill="#3A3A3A"/>
<path d="M98.2803 16.5312C98.8838 16.5312 99.3877 16.3643 99.792 16.0303C100.208 15.6904 100.416 15.2598 100.416 14.7383V14.0264L98.3857 14.167C97.29 14.2373 96.7422 14.6387 96.7422 15.3711C96.7422 15.7285 96.8828 16.0098 97.1641 16.2148C97.4395 16.4258 97.8115 16.5312 98.2803 16.5312ZM97.4453 18.4033C96.502 18.4033 95.7256 18.1367 95.1162 17.6035C94.4951 17.0586 94.1846 16.3584 94.1846 15.5029C94.1846 14.6299 94.5127 13.9443 95.1689 13.4463C95.8135 12.96 96.7568 12.6787 97.999 12.6025L100.416 12.4531V11.8115C100.416 11.3486 100.267 10.9912 99.9678 10.7393C99.6689 10.4932 99.2529 10.3701 98.7197 10.3701C98.2627 10.3701 97.8789 10.4814 97.5684 10.7041C97.2637 10.9209 97.0791 11.208 97.0146 11.5654H94.668C94.7031 10.6396 95.1016 9.88965 95.8633 9.31543C96.6309 8.73535 97.6182 8.44531 98.8252 8.44531C100.067 8.44531 101.063 8.73828 101.813 9.32422C102.563 9.91016 102.938 10.6865 102.938 11.6533V18.2891H100.46V16.7949H100.407C100.149 17.293 99.7451 17.6885 99.1943 17.9814C98.6611 18.2627 98.0781 18.4033 97.4453 18.4033Z" fill="#3A3A3A"/>
<path d="M104.503 11.46C104.503 10.5518 104.872 9.82227 105.61 9.27148C106.349 8.7207 107.33 8.44531 108.555 8.44531C109.75 8.44531 110.714 8.72656 111.446 9.28906C112.179 9.8457 112.554 10.5869 112.571 11.5127H110.198C110.169 11.1318 110.005 10.8271 109.706 10.5986C109.407 10.376 109.012 10.2646 108.52 10.2646C108.057 10.2646 107.685 10.3584 107.403 10.5459C107.122 10.7393 106.981 10.9912 106.981 11.3018C106.981 11.7764 107.412 12.1133 108.273 12.3125L110.093 12.708C111.065 12.9307 111.76 13.2441 112.176 13.6484C112.598 14.0527 112.809 14.6152 112.809 15.3359C112.809 16.2734 112.416 17.0293 111.631 17.6035C110.846 18.1719 109.817 18.4561 108.546 18.4561C107.286 18.4561 106.27 18.1719 105.496 17.6035C104.74 17.0527 104.33 16.3057 104.266 15.3623H106.771C106.899 16.2119 107.515 16.6367 108.616 16.6367C109.126 16.6367 109.527 16.543 109.82 16.3555C110.113 16.1738 110.26 15.9248 110.26 15.6084C110.26 15.3564 110.169 15.1572 109.987 15.0107C109.8 14.8643 109.486 14.7383 109.047 14.6328L107.263 14.2285C105.423 13.8125 104.503 12.8896 104.503 11.46Z" fill="#3A3A3A"/>
<path d="M118.46 10.3613C117.874 10.3613 117.385 10.5547 116.992 10.9414C116.605 11.3281 116.389 11.832 116.342 12.4531H120.517C120.493 11.8203 120.294 11.3135 119.919 10.9326C119.544 10.5518 119.058 10.3613 118.46 10.3613ZM122.916 15.3359C122.775 16.2734 122.304 17.0264 121.501 17.5947C120.698 18.1689 119.708 18.4561 118.53 18.4561C117.06 18.4561 115.899 18.0137 115.05 17.1289C114.206 16.2441 113.784 15.0312 113.784 13.4902C113.784 11.9492 114.203 10.7246 115.041 9.81641C115.885 8.90234 117.016 8.44531 118.434 8.44531C119.828 8.44531 120.936 8.87891 121.756 9.74609C122.582 10.6133 122.995 11.7822 122.995 13.2529V14.0439H116.315V14.2021C116.315 14.8994 116.523 15.4648 116.939 15.8984C117.355 16.3262 117.9 16.54 118.574 16.54C119.061 16.54 119.479 16.4316 119.831 16.2148C120.188 16.0039 120.429 15.7109 120.552 15.3359H122.916Z" fill="#3A3A3A"/>
<path fill-rule="evenodd" clip-rule="evenodd" d="M17.3162 9.24806C16.6235 6.6049 12.7768 6.91341 12.5142 9.63317L11.5609 19.5066L9.43915 19.3017L10.3925 9.42831C10.8839 4.33898 18.0819 3.76173 19.3781 8.70767L19.8167 10.3811C20.2787 12.1439 22.7256 12.2877 23.3909 10.5912C24.8637 6.83582 30.334 7.35463 31.0745 11.3199L32.5477 19.2085L30.4523 19.5998L28.9792 11.7112C28.6319 9.85138 26.0661 9.60804 25.3754 11.3694C23.9569 14.9866 18.7397 14.6799 17.7547 10.9215L17.3162 9.24806Z" fill="url(#paint0_linear)"/>
<path d="M14 16.9041C14 18.561 12.6569 19.9041 11 19.9041C9.34315 19.9041 8 18.561 8 16.9041C8 15.2473 9.34315 13.9041 11 13.9041C12.6569 13.9041 14 15.2473 14 16.9041Z" fill="#2642BA"/>
<path d="M34 16.9041C34 18.561 32.6569 19.9041 31 19.9041C29.3431 19.9041 28 18.561 28 16.9041C28 15.2473 29.3431 13.9041 31 13.9041C32.6569 13.9041 34 15.2473 34 16.9041Z" fill="#65C19C"/>
<defs>
<linearGradient id="paint0_linear" x1="11.6677" y1="13.0089" x2="28.1713" y2="17.321" gradientUnits="userSpaceOnUse">
<stop stop-color="#2642BA"/>
<stop offset="1" stop-color="#65C19C"/>
</linearGradient>
</defs>
</svg>
